<svg width="230" height="23" viewBox="0 0 230 23" fill="none" xmlns="http://www.w3.org/2000/svg">
<path d="M229.603 22.7754C227.93 22.7754 226.376 22.8124 224.825 22.7384C224.538 22.7384 224.18 22.3272 224.003 21.99C222.872 19.8601 221.762 17.7178 220.714 15.5508C220.602 15.2312 220.382 14.9605 220.093 14.785C219.803 14.6094 219.461 14.54 219.126 14.5886C218.305 14.6491 217.48 14.6491 216.659 14.5886C215.837 14.5352 215.52 14.7983 215.545 15.6742C215.602 17.7301 215.545 19.7614 215.578 21.805C215.578 22.5739 215.327 22.8288 214.57 22.7877C213.584 22.7343 212.597 22.7548 211.606 22.7877C211.042 22.7877 210.824 22.5945 210.824 22.0147C210.824 14.9642 210.824 7.91368 210.824 0.863172C210.824 0.221718 211.075 0.0407955 211.676 0.0407955C215.376 0.0407955 219.102 0.00378855 222.811 0.0654668C226.125 0.123033 228.481 1.88703 229.246 4.72423C230.196 8.23578 229.015 11.7884 226.244 13.4373C225.487 13.8896 225.475 14.2597 225.833 14.9669C226.984 17.2367 228.086 19.5352 229.2 21.8255C229.332 22.0928 229.435 22.3683 229.603 22.7754ZM219.028 10.23C219.028 10.2588 219.028 10.2013 219.028 10.23C220.261 10.1396 221.474 10.1889 222.687 10.0368C223.987 9.87642 224.743 8.78266 224.743 7.29827C224.743 5.81388 223.921 4.69545 222.646 4.61321C220.545 4.48574 218.436 4.48163 216.33 4.42817C215.763 4.42817 215.57 4.70778 215.578 5.25055C215.602 6.61158 215.615 7.97673 215.578 9.33776C215.578 10.0327 215.878 10.2342 216.495 10.2259C217.325 10.2177 218.177 10.23 219.028 10.23Z" fill="#2672CA"/>
<path d="M159.496 11.3116C159.496 7.90696 159.496 4.49821 159.496 1.08946C159.496 0.308202 159.685 0.0121463 160.524 0.0285938C163.283 0.0779364 166.05 -0.0783151 168.801 0.0738245C174.492 0.390439 177.847 3.60182 178.764 9.26799C179.075 10.9782 179.021 12.7348 178.606 14.4228C178.191 16.1107 177.424 17.6918 176.355 19.0625C175.593 20.0725 174.622 20.9062 173.509 21.5066C172.395 22.107 171.165 22.4599 169.903 22.5411C166.725 22.8166 163.517 22.7015 160.322 22.7879C159.586 22.7879 159.5 22.4466 159.5 21.8421C159.508 18.3306 159.496 14.8231 159.496 11.3116ZM164.245 18.2442C165.808 18.2442 167.23 18.2442 168.653 18.2442C169.49 18.2511 170.313 18.033 171.036 17.6127C171.759 17.1925 172.357 16.5854 172.765 15.8552C173.39 14.8564 173.797 13.7366 173.958 12.5694C174.12 11.4022 174.033 10.214 173.702 9.08296C173.188 7.19972 172.358 5.43161 170.306 4.81071C169.257 4.53838 168.174 4.41382 167.09 4.44064C164.212 4.39952 164.212 4.44064 164.212 7.2285L164.245 18.2442Z" fill="#2672CA"/>
<path d="M22.4961 22.7796C20.8514 22.7796 19.404 22.8208 17.973 22.7467C17.6852 22.7467 17.3028 22.3356 17.1507 22.0231C16.7189 21.0691 16.3653 20.074 16.0158 19.0831C15.9687 18.8328 15.8292 18.6093 15.6251 18.457C15.421 18.3047 15.1671 18.2346 14.9138 18.2607C12.4467 18.2895 10.0083 18.2607 7.55764 18.3059C7.36117 18.3358 7.17402 18.4097 7.01023 18.5222C6.84643 18.6348 6.71025 18.7829 6.61191 18.9556C6.15761 19.943 5.75815 20.9547 5.41535 21.986C5.3663 22.2352 5.22423 22.4563 5.01802 22.6045C4.8118 22.7527 4.55691 22.8167 4.30514 22.7838C2.92355 22.7385 1.53784 22.7838 0 22.7838C0.859383 20.5592 1.6612 18.4704 2.47946 16.398C4.48195 11.3116 6.51322 6.23754 8.4787 1.14292C8.79943 0.320542 9.19417 -0.0536397 10.0988 0.028598C11.2419 0.139619 12.644 -0.242786 13.4664 0.299982C14.2888 0.842751 14.4286 2.23257 14.8398 3.28932C17.2768 9.42973 19.7069 15.5811 22.1301 21.7434C22.2412 22.0231 22.3316 22.3068 22.4961 22.7796ZM14.0832 13.9103L11.3529 6.99001H11.0939L8.41702 13.9103H14.0832Z" fill="#2672CA"/>
<path d="M130.338 22.7798L133.311 15.2509L138.036 3.22368C138.315 2.51233 138.648 1.81331 138.858 1.08139C139.101 0.259015 139.541 -0.0534883 140.412 0.0328612C141.295 0.0965982 142.182 0.0965982 143.065 0.0328612C143.314 -0.00948304 143.571 0.0429434 143.784 0.179862C143.997 0.316781 144.151 0.528318 144.216 0.773C147.039 7.93316 149.873 15.0988 152.715 22.2699C152.767 22.437 152.806 22.6073 152.834 22.7798C151.251 22.7798 149.734 22.8045 148.217 22.751C147.991 22.751 147.682 22.3933 147.571 22.1383C147.14 21.1392 146.749 20.1235 146.387 19.0997C146.324 18.8403 146.167 18.6132 145.947 18.4616C145.727 18.31 145.46 18.2444 145.195 18.2773C142.777 18.3184 140.359 18.3143 137.941 18.2773C137.712 18.2499 137.482 18.3077 137.293 18.4397C137.104 18.5716 136.97 18.7685 136.917 18.9927C136.543 20.0454 136.169 21.1063 135.704 22.1219C135.616 22.284 135.493 22.4243 135.344 22.5325C135.194 22.6406 135.022 22.7139 134.841 22.7469C133.398 22.8127 131.983 22.7798 130.338 22.7798ZM141.605 6.67766C140.602 9.25992 139.722 11.5297 138.809 13.8858H144.454L141.605 6.67766Z" fill="#2672CA"/>
<path d="M197.773 8.82806C197.773 10.1973 197.773 11.3856 197.773 12.574C197.773 13.1867 197.407 13.2031 196.951 13.2031C195.384 13.2031 193.813 13.2319 192.247 13.2031C191.424 13.2031 191.153 13.5033 191.194 14.2927C191.254 15.1772 191.254 16.0646 191.194 16.949C191.112 17.9482 191.408 18.3059 192.489 18.2813C195.779 18.2073 199.097 18.2813 202.403 18.236C203.246 18.236 203.567 18.4581 203.497 19.3216C203.43 20.1426 203.43 20.9677 203.497 21.7887C203.567 22.6111 203.25 22.829 202.448 22.8249C197.542 22.792 192.635 22.792 187.728 22.8249C186.832 22.8249 186.552 22.5617 186.56 21.6653C186.593 15.8347 186.581 10.0082 186.56 4.18163C186.56 3.09198 186.515 2.00233 186.47 0.912683C186.445 0.31646 186.659 0.0615234 187.292 0.0615234C192.196 0.077971 197.103 0.077971 202.013 0.0615234C202.629 0.0615234 202.876 0.275341 202.835 0.8839C202.802 1.73506 202.79 2.59033 202.835 3.44149C202.88 4.20219 202.592 4.4489 201.836 4.44068C198.772 4.40778 195.705 4.44068 192.637 4.44068C191.19 4.44068 191.182 4.44068 191.174 5.92918C191.174 8.85273 191.174 8.85273 194.126 8.85273L197.773 8.82806Z" fill="#2672CA"/>
<path d="M29.186 11.3117C29.186 7.90296 29.186 4.49421 29.186 1.08957C29.186 0.300088 29.4039 0.0163683 30.2304 0.0287039C33.5199 0.0739346 36.7724 0.0287039 40.0414 0.0657109C44.0052 0.123277 46.7437 2.70554 47.0316 6.58304C47.3194 10.4605 44.7824 13.8899 40.9624 14.3586C39.0134 14.5971 37.015 14.4655 35.0413 14.4162C34.0668 14.3915 33.7173 14.7081 33.7461 15.6991C33.8078 17.755 33.7461 19.811 33.779 21.834C33.779 22.5125 33.6268 22.8373 32.8703 22.7921C31.9515 22.7325 31.0299 22.7325 30.1112 22.7921C29.2888 22.8496 29.1243 22.4138 29.186 21.7353C29.1881 21.7011 29.1881 21.6668 29.186 21.6325C29.186 18.1923 29.186 14.752 29.186 11.3117ZM36.9575 10.0576C37.7798 10.0576 38.6022 10.0823 39.404 10.0576C40.9295 10.0041 42.0192 9.02139 42.085 7.67269C42.1837 5.76478 41.534 4.76148 39.8111 4.58878C38.055 4.44765 36.2923 4.4051 34.5315 4.46131C34.3605 4.50723 34.204 4.59585 34.0767 4.71884C33.9494 4.84184 33.8554 4.99517 33.8037 5.16444C33.7317 6.55607 33.7317 7.95049 33.8037 9.34212C33.8567 9.50852 33.9514 9.65859 34.0788 9.77806C34.2062 9.89753 34.362 9.98243 34.5315 10.0247C35.3389 10.0803 36.1488 10.0913 36.9575 10.0576Z" fill="#2672CA"/>
<path d="M98.9853 4.58868H92.4351V5.8428C92.4351 11.1266 92.4351 16.4062 92.4557 21.69C92.4557 22.5124 92.2542 22.866 91.3784 22.7961C90.4943 22.7262 89.6061 22.7262 88.7221 22.7961C87.8997 22.8619 87.6859 22.5206 87.69 21.7311C87.7188 16.4515 87.69 11.1677 87.69 5.88392V4.65036H81.148C81.148 3.19886 81.1151 1.85016 81.1932 0.50969C81.1932 0.336991 81.7894 0.0656069 82.1102 0.061495C84.9885 0.0286 87.8339 0.061495 90.6999 0.061495C93.167 0.061495 95.6095 0.061495 98.0602 0.061495C98.7551 0.061495 99.0388 0.258865 99.0018 0.999004C98.9442 2.12155 98.9853 3.28932 98.9853 4.58868Z" fill="#2672CA"/>
<path d="M53.7505 11.4268C53.7505 7.9893 53.7793 4.55177 53.7505 1.11424C53.7505 0.246629 54.0219 -0.0247552 54.8566 0.0328112C55.7053 0.0924311 56.5572 0.0924311 57.406 0.0328112C58.2612 -0.0329789 58.5162 0.283636 58.512 1.13068C58.4792 6.78041 58.512 12.4301 58.512 18.0799C58.512 19.3422 58.4874 20.6004 58.512 21.8587C58.512 22.57 58.2694 22.8291 57.554 22.7921C56.602 22.7427 55.6482 22.7427 54.6962 22.7921C53.9725 22.825 53.7546 22.5454 53.7587 21.8422C53.7669 18.3718 53.7505 14.8973 53.7505 11.4268Z" fill="#2672CA"/>
<path d="M71.407 15.4936C70.2186 15.4936 69.0262 15.469 67.8378 15.4936C67.2046 15.4936 66.9003 15.3374 66.9291 14.6425C66.9661 13.6597 66.9538 12.6729 66.9291 11.6901C66.9291 11.0857 67.1388 10.8225 67.7515 10.8308C70.1994 10.8554 72.6446 10.8664 75.0871 10.8636C75.6628 10.8636 75.9794 10.9993 75.9547 11.6572C75.9177 12.677 75.9259 13.7132 75.9547 14.7165C75.9547 15.2839 75.7491 15.5019 75.1817 15.4895C73.9193 15.4772 72.6611 15.4936 71.407 15.4936Z" fill="#585C5F"/>
<path d="M125.207 22.7754C123.533 22.7754 121.979 22.8165 120.429 22.7425C120.141 22.7425 119.783 22.3108 119.606 21.9941C118.476 19.8642 117.365 17.7219 116.317 15.5549C116.206 15.2313 115.984 14.9572 115.691 14.7812C115.397 14.6051 115.051 14.5384 114.713 14.5928C113.892 14.6511 113.067 14.6511 112.246 14.5928C111.424 14.5352 111.107 14.8025 111.132 15.6783C111.189 17.7342 111.132 19.7655 111.165 21.805C111.165 22.5739 110.914 22.833 110.157 22.7918C109.17 22.7384 108.184 22.7589 107.197 22.7918C106.629 22.7918 106.411 22.5986 106.411 22.0188C106.411 14.9683 106.411 7.91643 106.411 0.863179C106.411 0.225837 106.662 0.0408025 107.263 0.0408025C111.013 0.0613619 114.713 -0.000316326 118.414 0.0695857C121.728 0.127152 124.084 1.89115 124.849 4.72424C125.803 8.23989 124.619 11.7926 121.847 13.4414C121.091 13.8896 121.078 14.2638 121.436 14.9669C122.588 17.2408 123.69 19.5393 124.804 21.8297C124.935 22.0928 125.038 22.3724 125.207 22.7754ZM114.631 10.2342C114.631 10.2629 114.631 10.2013 114.631 10.2342C115.865 10.1437 117.078 10.1889 118.291 10.0409C119.59 9.88054 120.347 8.78266 120.347 7.30238C120.347 5.82211 119.524 4.69545 118.249 4.61733C116.148 4.48575 114.039 4.48575 111.934 4.43229C111.366 4.43229 111.173 4.7119 111.181 5.25467C111.206 6.6157 111.218 7.98084 111.181 9.34188C111.161 10.0368 111.481 10.2383 112.098 10.2259C112.929 10.2218 113.78 10.2342 114.631 10.2342Z" fill="#2672CA"/>
</svg>
