<svg width="24" height="24" viewBox="0 0 24 24" fill="none" xmlns="http://www.w3.org/2000/svg">
<path fill-rule="evenodd" clip-rule="evenodd" d="M12 24C18.6274 24 24 18.6274 24 12C24 5.37258 18.6274 0 12 0C5.37258 0 0 5.37258 0 12C0 18.6274 5.37258 24 12 24ZM6.58579 7.58579C6.96086 7.21071 7.46957 7 8 7H16C16.5304 7 17.0391 7.21071 17.4142 7.58579C17.7893 7.96086 18 8.46957 18 9V9.202L12 12.432L6 9.201V9C6 8.46957 6.21071 7.96086 6.58579 7.58579ZM12.237 13.44L18 10.337V15C18 15.5304 17.7893 16.0391 17.4142 16.4142C17.0391 16.7893 16.5304 17 16 17H8C7.46957 17 6.96086 16.7893 6.58579 16.4142C6.21071 16.0391 6 15.5304 6 15V10.337L11.763 13.44C11.8358 13.4792 11.9173 13.4997 12 13.4997C12.0827 13.4997 12.1642 13.4792 12.237 13.44Z" fill="#807878"/>
</svg>
