<svg width="23" height="23" viewBox="0 0 23 23" fill="none" xmlns="http://www.w3.org/2000/svg">
<path d="M17.6687 15.8176H22.2206C22.2274 15.9383 22.237 16.0371 22.237 16.1372C22.237 17.9782 22.2288 19.8219 22.2452 21.6629C22.2452 21.9935 22.1331 22.0594 21.835 22.0594C18.0274 22.0512 14.2189 22.0512 10.4095 22.0594C10.0923 22.0594 9.97607 21.9839 9.97881 21.6478C9.99521 19.8178 9.99248 17.9864 9.97881 16.1605C9.97881 15.8683 10.0458 15.7792 10.363 15.7888C11.4569 15.8203 12.5398 15.8094 13.6269 15.8121C14.5457 15.8121 14.5416 15.8121 14.5512 16.7189C14.5478 16.9224 14.5745 17.1254 14.6305 17.3211C14.7932 17.8232 15.1774 18.0852 15.7093 18.0907C15.9691 18.0907 16.2303 18.0907 16.4914 18.0907C16.6447 18.0959 16.7974 18.0699 16.9404 18.0142C17.0834 17.9585 17.2136 17.8744 17.3233 17.7668C17.4329 17.6592 17.5197 17.5305 17.5783 17.3883C17.637 17.2462 17.6664 17.0936 17.6646 16.9397C17.6769 16.5693 17.6687 16.2072 17.6687 15.8176Z" fill="#2672CA"/>
<path d="M6.57963 1.83282C7.45883 2.71765 8.35717 3.61619 9.25141 4.51611C9.52488 4.79047 9.82706 5.06484 10.0937 5.35841C10.2947 5.57927 10.4369 5.56967 10.6406 5.35841C11.8986 4.07804 13.1638 2.80819 14.4364 1.54885C14.6674 1.31976 14.9409 1.13731 15.1952 0.924673L15.094 0.739477C14.8134 0.71689 14.5318 0.71002 14.2504 0.7189C13.9031 0.747708 13.8238 0.594064 13.8402 0.28266C13.8552 0.0823736 13.9099 -0.00267945 14.1137 6.42e-05C14.8055 0.00829514 15.496 0.00692332 16.1879 6.42e-05C16.378 6.42e-05 16.4504 0.0782581 16.4491 0.264826C16.4491 0.845108 16.4395 1.42402 16.4491 2.0043C16.4491 2.29375 16.2659 2.2622 16.0826 2.26357C15.8994 2.26495 15.7312 2.27866 15.7463 2.01116C15.7586 1.80127 15.7463 1.58864 15.7463 1.3472L10.4588 6.722L6.63022 2.79173L0.534629 8.91692L0 8.42855L6.57963 1.83282Z" fill="#2672CA"/>
<path d="M16.1126 14.9655H10.4395C10.2043 14.9655 9.96369 15.0232 9.97736 14.6267C9.99787 14.0012 10.0608 13.8557 10.4792 13.8544C11.573 13.8544 12.6765 13.8379 13.7745 13.8544C14.119 13.8544 14.2229 13.7611 14.212 13.4154C14.196 12.9403 14.2171 12.4646 14.2749 11.9928C14.3068 11.7708 14.4174 11.5677 14.5864 11.4208C14.7554 11.2739 14.9715 11.193 15.1951 11.193C15.8186 11.1779 16.4421 11.1752 17.0629 11.193C17.5921 11.2109 18.0023 11.6937 18.02 12.2905C18.031 12.702 18.0351 13.1136 18.02 13.5169C18.0105 13.7679 18.0939 13.8516 18.3482 13.8489C19.4694 13.8393 20.5906 13.8365 21.7119 13.8571C21.8746 13.8571 22.1398 13.971 22.1754 14.0876C22.2316 14.3498 22.2372 14.6203 22.1918 14.8846C22.1918 14.9203 21.973 14.9559 21.8554 14.9559C19.9421 14.9651 18.0278 14.9683 16.1126 14.9655ZM16.1126 13.8503C16.4066 13.8503 16.7019 13.8407 16.9945 13.8503C17.1996 13.8599 17.2926 13.7734 17.2899 13.5759C17.2899 13.1643 17.2694 12.7391 17.268 12.3207C17.268 12.0134 17.0889 11.8927 16.8182 11.8858C16.356 11.8762 15.8925 11.8776 15.4289 11.8858C15.1555 11.8858 14.9654 12.0106 14.9517 12.2974C14.9312 12.7267 14.9258 13.1575 14.9189 13.5869C14.9189 13.7707 15.0146 13.8434 15.1924 13.8393C15.5028 13.8434 15.8077 13.8557 16.1126 13.8557V13.8503Z" fill="#2672CA"/>
<path d="M0.057373 23.0006V22.3051C0.542778 22.3051 1.01451 22.3051 1.48487 22.3051C2.2205 22.3119 2.95613 22.3339 3.69176 22.3325C9.69529 22.3252 15.6993 22.3156 21.7037 22.3037C21.9977 22.3037 22.293 22.3161 22.587 22.3037C22.9384 22.3037 22.9972 22.3037 22.9972 22.7249C22.9898 22.8162 22.9898 22.9079 22.9972 22.9992L0.057373 23.0006Z" fill="#585C5F"/>
<path d="M1.20459 22.0409V13.124H2.99991V22.0409H1.20459Z" fill="#585C5F"/>
<path d="M16.8251 15.8076C16.8251 16.2192 16.8251 16.5649 16.8251 16.916C16.8307 16.9727 16.8203 17.0297 16.7951 17.0807C16.5024 17.4401 16.1004 17.248 15.7449 17.27C15.5043 17.2851 15.384 17.0944 15.3703 16.868C15.3518 16.5848 15.3518 16.3007 15.3703 16.0175C15.3827 15.9702 15.4071 15.9268 15.4411 15.8917C15.4751 15.8566 15.5176 15.831 15.5645 15.8172C15.9664 15.7966 16.3725 15.8076 16.8251 15.8076Z" fill="#585C5F"/>
<path d="M5.74292 22.0534V10.4258H7.64899V22.0479L5.74292 22.0534Z" fill="#585C5F"/>
<path d="M11.1943 13.0768V8.49219H12.9897V13.0768H11.1943Z" fill="#585C5F"/>
<path d="M15.8037 10.3053V4.23633H17.6277V10.3053H15.8037Z" fill="#585C5F"/>
<path d="M20.3911 13.0461V0.779297H22.1864V13.0461H20.3911Z" fill="#585C5F"/>
</svg>
