<svg width="44" height="44" viewBox="0 0 44 44" fill="none" xmlns="http://www.w3.org/2000/svg">
<g clip-path="url(#clip0_16_50)">
<path d="M33.8011 30.2586H42.509C42.5221 30.4895 42.5404 30.6785 42.5404 30.8701C42.5404 34.3919 42.5247 37.9191 42.5561 41.441C42.5561 42.0734 42.3416 42.1994 41.7713 42.1994C34.4873 42.1837 27.2015 42.1837 19.9139 42.1994C19.307 42.1994 19.0847 42.0551 19.0899 41.4121C19.1213 37.9112 19.1161 34.4077 19.0899 30.9147C19.0899 30.3557 19.2181 30.1851 19.825 30.2035C21.9176 30.2638 23.9893 30.2428 26.0688 30.2481C27.8266 30.2481 27.8188 30.2481 27.8371 31.9828C27.8306 32.3722 27.8817 32.7605 27.9888 33.1349C28.3001 34.0954 29.0351 34.5966 30.0527 34.6071C30.5497 34.6071 31.0493 34.6071 31.5489 34.6071C31.8421 34.6171 32.1343 34.5673 32.4078 34.4608C32.6813 34.3543 32.9304 34.1933 33.1402 33.9875C33.3499 33.7818 33.5159 33.5355 33.6282 33.2635C33.7404 32.9916 33.7966 32.6996 33.7932 32.4053C33.8168 31.6967 33.8011 31.0039 33.8011 30.2586Z" fill="#1F87FF"/>
<path d="M12.5871 3.50578C14.2691 5.19849 15.9876 6.91744 17.6984 8.63902C18.2215 9.16389 18.7996 9.68877 19.3097 10.2504C19.6942 10.6729 19.9662 10.6545 20.356 10.2504C22.7625 7.80098 25.183 5.3717 27.6174 2.96254C28.0594 2.52427 28.5826 2.17523 29.0691 1.76845L28.8756 1.41416C28.3387 1.37095 27.7999 1.35781 27.2616 1.3748C26.5972 1.42991 26.4455 1.13598 26.4769 0.540252C26.5057 0.157096 26.6103 -0.00561418 27.0001 -0.000365464C28.3236 0.0153807 29.6446 0.0127563 30.9682 -0.000365464C31.3318 -0.000365464 31.4704 0.149223 31.4678 0.506136C31.4678 1.61624 31.4495 2.72372 31.4678 3.83382C31.4678 4.38756 31.1173 4.3272 30.7668 4.32983C30.4163 4.33245 30.0945 4.35869 30.1233 3.84694C30.1468 3.44542 30.1233 3.03864 30.1233 2.57675L20.0081 12.859L12.6839 5.3402L1.02277 17.058L0 16.1237L12.5871 3.50578Z" fill="#1F87FF"/>
<path d="M30.8242 28.6288H19.9714C19.5215 28.6288 19.0611 28.7391 19.0872 27.9806C19.1265 26.7839 19.2468 26.5057 20.0472 26.5031C22.1399 26.5031 24.2508 26.4716 26.3513 26.5031C27.0104 26.5031 27.2092 26.3246 27.1883 25.6633C27.1578 24.7544 27.198 23.8445 27.3086 22.9418C27.3697 22.5171 27.5812 22.1286 27.9045 21.8476C28.2279 21.5666 28.6413 21.4119 29.0691 21.4118C30.2618 21.383 31.4546 21.3777 32.6422 21.4118C33.6545 21.446 34.4392 22.3697 34.4732 23.5113C34.4942 24.2986 34.502 25.0859 34.4732 25.8575C34.4549 26.3378 34.6145 26.4979 35.101 26.4926C37.246 26.4742 39.3909 26.469 41.5358 26.5084C41.8471 26.5084 42.3546 26.7262 42.4226 26.9492C42.5301 27.4508 42.5408 27.9684 42.454 28.474C42.454 28.5422 42.0355 28.6105 41.8105 28.6105C38.1502 28.628 34.4881 28.6341 30.8242 28.6288ZM30.8242 26.4952C31.3866 26.4952 31.9516 26.4769 32.5114 26.4952C32.9038 26.5136 33.0817 26.3483 33.0764 25.9704C33.0764 25.183 33.0372 24.3695 33.0346 23.5691C33.0346 22.9812 32.6919 22.7503 32.174 22.7371C31.2898 22.7188 30.4031 22.7214 29.5163 22.7371C28.9932 22.7371 28.6296 22.976 28.6034 23.5245C28.5642 24.3459 28.5537 25.1699 28.5407 25.9914C28.5407 26.343 28.7238 26.4821 29.0638 26.4742C29.6576 26.4821 30.2409 26.5057 30.8242 26.5057V26.4952Z" fill="#1F87FF"/>
<path d="M0.109863 43.9997V42.6691C1.03846 42.6691 1.94091 42.6691 2.84074 42.6691C4.24802 42.6822 5.65531 42.7242 7.0626 42.7216C18.5476 42.7076 30.0335 42.6892 41.5202 42.6665C42.0826 42.6665 42.6476 42.6901 43.21 42.6665C43.8823 42.6665 43.9948 42.6665 43.9948 43.4722C43.9807 43.6468 43.9807 43.8224 43.9948 43.997L0.109863 43.9997Z" fill="white"/>
<path d="M2.30444 42.1653V25.1069H5.73896V42.1653H2.30444Z" fill="white"/>
<path d="M32.1871 30.2405C32.1871 31.0278 32.1871 31.6891 32.1871 32.3609C32.1978 32.4693 32.1778 32.5784 32.1296 32.6759C31.5698 33.3634 30.8007 32.996 30.1206 33.038C29.6603 33.0669 29.4301 32.7021 29.4039 32.2691C29.3686 31.7273 29.3686 31.1838 29.4039 30.642C29.4277 30.5514 29.4743 30.4685 29.5394 30.4014C29.6045 30.3343 29.6858 30.2852 29.7754 30.2588C30.5444 30.2195 31.3213 30.2405 32.1871 30.2405Z" fill="white"/>
<path d="M10.9863 42.1889V19.9448H14.6327V42.1784L10.9863 42.1889Z" fill="white"/>
<path d="M21.4153 25.0152V16.2446H24.8498V25.0152H21.4153Z" fill="white"/>
<path d="M30.2332 19.7142V8.104H33.7226V19.7142H30.2332Z" fill="white"/>
<path d="M39.009 24.9573V1.49023H42.4435V24.9573H39.009Z" fill="white"/>
</g>
<defs>
<clipPath id="clip0_16_50">
<rect width="44" height="44" fill="white"/>
</clipPath>
</defs>
</svg>
